<svg xmlns="http://www.w3.org/2000/svg" width="344.609" height="28.791" viewBox="0 0 344.609 28.791">
  <path id="Trazado_1" data-name="Trazado 1" d="M15.592-6.732H15.7l6.574-18.861h6.7V0H23.836V-17.473l-.105-.018L17.4,0h-3.48L7.594-17.525l-.105.018V0H2.355V-25.594H9.088ZM40.669,0H35.537V-19.02h5.133Zm0-23.572H35.537v-3.85h5.133ZM51.562-19.02l.229,2.725a6.957,6.957,0,0,1,2.338-2.268,6.069,6.069,0,0,1,3.111-.809,5.655,5.655,0,0,1,4.5,1.854q1.617,1.854,1.617,5.862V0h-5.15V-11.637a4.553,4.553,0,0,0-.712-2.892,2.624,2.624,0,0,0-2.136-.853,4.482,4.482,0,0,0-2.013.431,3.929,3.929,0,0,0-1.433,1.187V0H46.78V-19.02ZM74.565,0H69.432V-19.02h5.133Zm0-23.572H69.432v-3.85h5.133Zm16.482,18.3a1.771,1.771,0,0,0-.817-1.45A8.3,8.3,0,0,0,87.2-7.787a12.094,12.094,0,0,1-5.071-2.021,4.415,4.415,0,0,1-1.731-3.674,5.24,5.24,0,0,1,2.074-4.166,8.363,8.363,0,0,1,5.52-1.723,9.025,9.025,0,0,1,5.774,1.723,5.033,5.033,0,0,1,2.083,4.289l-.035.105H90.854a2.489,2.489,0,0,0-.738-1.863,2.921,2.921,0,0,0-2.127-.721,2.906,2.906,0,0,0-1.951.615,1.913,1.913,0,0,0-.721,1.512,1.707,1.707,0,0,0,.747,1.433,8.315,8.315,0,0,0,3.032.993A12.339,12.339,0,0,1,94.308-9.22a4.531,4.531,0,0,1,1.714,3.753,5.02,5.02,0,0,1-2.2,4.2,9.484,9.484,0,0,1-5.8,1.635,8.816,8.816,0,0,1-6-1.925,5.381,5.381,0,0,1-2.1-4.386l.035-.105h4.693a2.668,2.668,0,0,0,1,2.215,4.136,4.136,0,0,0,2.479.686A3.525,3.525,0,0,0,90.3-3.718,1.853,1.853,0,0,0,91.047-5.273Zm16.412-18.4v4.658h3.217v3.6h-3.217V-5.73a2.21,2.21,0,0,0,.466,1.582,1.635,1.635,0,0,0,1.222.475,4.9,4.9,0,0,0,.7-.044,5.922,5.922,0,0,0,.686-.149l.422,3.709a10.391,10.391,0,0,1-1.5.4,8.96,8.96,0,0,1-1.591.132,5.471,5.471,0,0,1-4.087-1.459,6.4,6.4,0,0,1-1.433-4.623v-9.7H99.566v-3.6h2.777v-4.658ZM124.064.369a8.558,8.558,0,0,1-6.645-2.61,9.567,9.567,0,0,1-2.391-6.724v-.7a10.413,10.413,0,0,1,2.32-7,7.888,7.888,0,0,1,6.381-2.707,7.385,7.385,0,0,1,5.88,2.347,9.274,9.274,0,0,1,2.048,6.319v2.654H120.319l-.053.105a5.138,5.138,0,0,0,1.187,3.164,3.973,3.973,0,0,0,3.155,1.213,10.558,10.558,0,0,0,2.927-.352,11.942,11.942,0,0,0,2.487-1.072l1.389,3.164a9.527,9.527,0,0,1-3.094,1.564A13.72,13.72,0,0,1,124.064.369Zm-.334-15.785a2.851,2.851,0,0,0-2.382,1.063,5.335,5.335,0,0,0-1.011,2.821l.035.088h6.258v-.387a4.442,4.442,0,0,0-.686-2.628A2.536,2.536,0,0,0,123.73-15.416Zm22.9.809-1.881-.053a3.419,3.419,0,0,0-1.881.475,3.008,3.008,0,0,0-1.125,1.336V0h-5.115V-19.02h4.764l.229,2.813a6,6,0,0,1,1.731-2.329,3.86,3.86,0,0,1,2.452-.835,3.836,3.836,0,0,1,.712.062q.325.062.659.149ZM156.676,0h-5.133V-19.02h5.133Zm0-23.572h-5.133v-3.85h5.133Zm5.408,13.887a10.207,10.207,0,0,1,2.373-6.97,8.272,8.272,0,0,1,6.574-2.716,8.36,8.36,0,0,1,6.609,2.707,10.152,10.152,0,0,1,2.391,6.979v.369a10.168,10.168,0,0,1-2.382,6.987,8.325,8.325,0,0,1-6.583,2.7,8.346,8.346,0,0,1-6.6-2.7,10.168,10.168,0,0,1-2.382-6.987Zm5.115.369a8.274,8.274,0,0,0,.914,4.175,3.156,3.156,0,0,0,2.953,1.573,3.125,3.125,0,0,0,2.909-1.582,8.219,8.219,0,0,0,.923-4.166v-.369a8.136,8.136,0,0,0-.932-4.131,3.152,3.152,0,0,0-2.936-1.6,3.113,3.113,0,0,0-2.909,1.608,8.209,8.209,0,0,0-.923,4.122Zm28.13-.035a12.359,12.359,0,0,1,1.942-7.26,6.307,6.307,0,0,1,5.476-2.76,5.326,5.326,0,0,1,2.566.615,6.174,6.174,0,0,1,2,1.758V-27.422h5.15V0h-4.377l-.439-2.338a6.358,6.358,0,0,1-2.127,2.013,5.623,5.623,0,0,1-2.812.694,6.431,6.431,0,0,1-5.44-2.566,10.959,10.959,0,0,1-1.942-6.785Zm5.115.369a7.747,7.747,0,0,0,.844,3.929,2.937,2.937,0,0,0,2.742,1.433,3.994,3.994,0,0,0,1.934-.448,3.576,3.576,0,0,0,1.354-1.31v-8.1a3.95,3.95,0,0,0-1.345-1.4,3.576,3.576,0,0,0-1.907-.5,2.9,2.9,0,0,0-2.751,1.67,9.437,9.437,0,0,0-.87,4.359ZM226.664.369a8.558,8.558,0,0,1-6.645-2.61,9.567,9.567,0,0,1-2.391-6.724v-.7a10.413,10.413,0,0,1,2.32-7,7.888,7.888,0,0,1,6.381-2.707,7.385,7.385,0,0,1,5.88,2.347,9.274,9.274,0,0,1,2.048,6.319v2.654H222.92l-.053.105a5.138,5.138,0,0,0,1.187,3.164,3.973,3.973,0,0,0,3.155,1.213,10.558,10.558,0,0,0,2.927-.352,11.942,11.942,0,0,0,2.487-1.072l1.389,3.164a9.527,9.527,0,0,1-3.094,1.564A13.72,13.72,0,0,1,226.664.369Zm-.334-15.785a2.851,2.851,0,0,0-2.382,1.063,5.335,5.335,0,0,0-1.011,2.821l.035.088h6.258v-.387a4.442,4.442,0,0,0-.686-2.628A2.536,2.536,0,0,0,226.33-15.416ZM263.9-6.68a2.994,2.994,0,0,0-1.028-2.373,10.333,10.333,0,0,0-3.612-1.687,20.528,20.528,0,0,1-6.724-3.146,5.954,5.954,0,0,1-2.294-4.939,6.212,6.212,0,0,1,2.584-5.142,10.472,10.472,0,0,1,6.592-2,10.4,10.4,0,0,1,6.847,2.145,6.709,6.709,0,0,1,2.5,5.625l-.035.105h-4.975a3.727,3.727,0,0,0-1.16-2.944,4.738,4.738,0,0,0-3.252-1.028,4.3,4.3,0,0,0-2.936.914,2.977,2.977,0,0,0-1.037,2.338,2.553,2.553,0,0,0,1.125,2.136,15.049,15.049,0,0,0,3.885,1.767,16.715,16.715,0,0,1,6.434,3.12,6.392,6.392,0,0,1,2.215,5.071,6.1,6.1,0,0,1-2.566,5.186,11.141,11.141,0,0,1-6.785,1.9,12.124,12.124,0,0,1-7.093-2.057,6.784,6.784,0,0,1-2.874-6.135l.035-.105h4.975a4.027,4.027,0,0,0,1.336,3.34,5.624,5.624,0,0,0,3.621,1.072,4.943,4.943,0,0,0,3.138-.861A2.794,2.794,0,0,0,263.9-6.68ZM285.62,0a10.8,10.8,0,0,1-.483-1.371,9.537,9.537,0,0,1-.29-1.477,7.035,7.035,0,0,1-2.092,2.3,5.243,5.243,0,0,1-3.094.914,6.423,6.423,0,0,1-4.605-1.538,5.51,5.51,0,0,1-1.617-4.192,5.015,5.015,0,0,1,2.153-4.333,10.754,10.754,0,0,1,6.284-1.538h2.883v-1.512a2.959,2.959,0,0,0-.721-2.127,2.829,2.829,0,0,0-2.145-.756,2.788,2.788,0,0,0-1.925.606,2.117,2.117,0,0,0-.677,1.661h-4.939l-.035-.105a4.824,4.824,0,0,1,2.1-4.157,9.124,9.124,0,0,1,5.81-1.749,8.514,8.514,0,0,1,5.546,1.723,6,6,0,0,1,2.118,4.939v7.857a14.861,14.861,0,0,0,.2,2.514A12.614,12.614,0,0,0,290.735,0Zm-4.693-3.428a4.373,4.373,0,0,0,2.391-.668,3.6,3.6,0,0,0,1.441-1.547V-8.332h-2.883a3.417,3.417,0,0,0-2.47.809,2.657,2.657,0,0,0-.835,1.986A1.983,1.983,0,0,0,279.2-4,2.469,2.469,0,0,0,280.927-3.428ZM301.117,0h-5.133V-27.422h5.133Zm17.853-2.812a6.457,6.457,0,0,1-2.232,2.355,5.918,5.918,0,0,1-3.146.826,5.783,5.783,0,0,1-4.7-2.039q-1.7-2.039-1.7-6.328V-19.02h5.115V-7.963a6.14,6.14,0,0,0,.677,3.419,2.432,2.432,0,0,0,2.1.923,5.115,5.115,0,0,0,2.109-.4,3.556,3.556,0,0,0,1.441-1.169V-19.02h5.133V0h-4.254Zm9.855-6.539a12.359,12.359,0,0,1,1.942-7.26,6.307,6.307,0,0,1,5.476-2.76,5.326,5.326,0,0,1,2.566.615,6.174,6.174,0,0,1,2,1.758V-27.422h5.15V0h-4.377l-.439-2.338a6.358,6.358,0,0,1-2.127,2.013,5.623,5.623,0,0,1-2.812.694,6.431,6.431,0,0,1-5.44-2.566,10.959,10.959,0,0,1-1.942-6.785Zm5.115.369a7.747,7.747,0,0,0,.844,3.929,2.937,2.937,0,0,0,2.742,1.433,3.994,3.994,0,0,0,1.934-.448,3.576,3.576,0,0,0,1.354-1.31v-8.1a3.95,3.95,0,0,0-1.345-1.4,3.576,3.576,0,0,0-1.907-.5,2.9,2.9,0,0,0-2.751,1.67,9.437,9.437,0,0,0-.87,4.359Z" transform="translate(-1.855 27.922)" fill="#37bbed" stroke="#37bbed" stroke-width="1"/>
</svg>
